<?xml version="1.0" encoding="UTF-8"?>
<svg xmlns="http://www.w3.org/2000/svg" version="1.1" viewBox="0 0 110 135">
  <defs>
    <style>
      .cls-1 {
        display: none;
      }
    </style>
  </defs>
  <!-- Generator: Adobe Illustrator 28.7.7, SVG Export Plug-In . SVG Version: 1.2.0 Build 194)  -->
  <g>
    <g id="Layer_1" class="cls-1">
      <path d="M73.7,41.3c-3.2-13.8-10.2-23-18.7-23s-15.5,9.1-18.7,23c-13.8,3.2-23,10.2-23,18.7s9.1,15.5,23,18.7c3.2,13.8,10.2,23,18.7,23s15.5-9.1,18.7-23c13.8-3.2,23-10.2,23-18.7s-9.1-15.5-23-18.7ZM34.7,69.7c-8.3-2.7-13-6.6-13-9.7s4.8-7,13-9.7c-.4,3.1-.5,6.3-.5,9.7s.2,6.6.5,9.7ZM55,93.3c-3.1,0-7-4.8-9.7-13,3.1.4,6.3.5,9.7.5s6.6-.2,9.7-.5c-2.7,8.3-6.6,13-9.7,13ZM50.8,60c0-2.3,1.9-4.2,4.2-4.2s4.2,1.9,4.2,4.2-1.9,4.2-4.2,4.2-4.2-1.9-4.2-4.2ZM55,39.2c-3.3,0-6.6.2-9.7.5,2.7-8.3,6.6-13,9.7-13s7,4.8,9.7,13c-3.1-.4-6.3-.5-9.7-.5ZM75.3,69.7c.4-3.1.5-6.3.5-9.7s-.2-6.6-.5-9.7c8.3,2.7,13,6.6,13,9.7s-4.8,7-13,9.7Z"/>
    </g>
    <g id="Layer_2">
      <path d="M73.7,41.3c-3.2-13.8-10.2-23-18.7-23s-15.5,9.1-18.7,23c-13.8,3.2-23,10.2-23,18.7s9.1,15.5,23,18.7c3.2,13.8,10.2,23,18.7,23s15.5-9.1,18.7-23c13.8-3.2,23-10.2,23-18.7s-9.1-15.5-23-18.7ZM34.7,69.7c-8.3-2.7-13-6.6-13-9.7s4.8-7,13-9.7c-.4,3.1-.5,6.3-.5,9.7s.2,6.6.5,9.7ZM55,93.3c-3.1,0-7-4.8-9.7-13,3.1.4,6.3.5,9.7.5s6.6-.2,9.7-.5c-2.7,8.3-6.6,13-9.7,13ZM50.8,60c0-2.3,1.9-4.2,4.2-4.2s4.2,1.9,4.2,4.2-1.9,4.2-4.2,4.2-4.2-1.9-4.2-4.2ZM55,39.2c-3.3,0-6.6.2-9.7.5,2.7-8.3,6.6-13,9.7-13s7,4.8,9.7,13c-3.1-.4-6.3-.5-9.7-.5ZM75.3,69.7c.4-3.1.5-6.3.5-9.7s-.2-6.6-.5-9.7c8.3,2.7,13,6.6,13,9.7s-4.8,7-13,9.7Z"/>
    </g>
  </g>
</svg>